<svg width="51" height="52" viewBox="0 0 51 52" fill="none" xmlns="http://www.w3.org/2000/svg">
<g id="Frame">
<g id="Group">
<path id="Vector" d="M45.4219 15.3857C45.429 15.3857 45.4354 15.3817 45.4418 15.3817C48.5082 15.3705 51 12.8731 51 9.80435C51 6.72921 48.497 4.22623 45.4219 4.22623H5.57812C2.50298 4.22623 0 6.72921 0 9.80435C0 12.8731 2.49183 15.3697 5.5582 15.3817C5.56537 15.3817 5.57175 15.3857 5.57812 15.3857H11.1586V16.9778H5.57812C2.50298 16.9778 0 19.4808 0 22.5559C0 25.6247 2.49262 28.1221 5.559 28.1333C5.56617 28.1333 5.57255 28.1373 5.57892 28.1373H11.1586V46.4749C11.1586 46.6863 11.2426 46.889 11.392 47.0384C11.5415 47.1879 11.7442 47.2718 11.9555 47.2718H37.4523C37.5432 47.2697 37.633 47.2516 37.7177 47.2184C37.7288 47.2144 37.74 47.216 37.7512 47.212C37.8547 47.1698 37.9464 47.1069 38.0237 47.028L42.7978 42.2539C42.8721 42.1797 42.9309 42.0914 42.9707 41.9941C43.0111 41.8977 43.0319 41.7942 43.032 41.6897V28.1349H45.4219C48.497 28.1349 51 25.6319 51 22.5567C51 19.4816 48.497 16.9786 45.4219 16.9786H43.032V15.3865L45.4219 15.3857ZM41.4383 40.892H37.4507C37.2394 40.892 37.0367 40.976 36.8873 41.1254C36.7378 41.2749 36.6539 41.4776 36.6539 41.6889V45.6781H12.7524V15.3904H41.4383V40.892ZM38.2476 42.4858H40.3115L38.2476 44.5497V42.4858ZM1.59375 22.5559C1.59375 20.359 3.38114 18.5716 5.57812 18.5716C7.77511 18.5716 9.5625 20.359 9.5625 22.5559C9.5625 24.7529 7.77511 26.5403 5.57812 26.5403C3.38114 26.5403 1.59375 24.7529 1.59375 22.5559ZM9.47086 26.5435C10.0041 26.0258 10.4282 25.4063 10.7178 24.7218C11.0075 24.0373 11.157 23.3017 11.1573 22.5584C11.1577 21.8151 11.009 21.0793 10.72 20.3945C10.431 19.7097 10.0076 19.0899 9.47484 18.5716H11.1586V26.5435H9.47086ZM45.4219 18.5716C47.6189 18.5716 49.4062 20.359 49.4062 22.5559C49.4062 24.7529 47.6189 26.5403 45.4219 26.5403H43.032V18.5716H45.4219ZM45.4219 5.81998C47.6189 5.81998 49.4062 7.60737 49.4062 9.80435C49.4062 12.0013 47.6189 13.7887 45.4219 13.7887C45.4163 13.7887 45.4115 13.7919 45.4059 13.7919H9.47086C10.0041 13.2742 10.4282 12.6547 10.7178 11.9702C11.0075 11.2857 11.157 10.5501 11.1573 9.80679C11.1577 9.06351 11.009 8.32771 10.72 7.64292C10.431 6.95813 10.0076 6.33826 9.47484 5.81998H45.4219ZM1.59375 9.80435C1.59375 7.60737 3.38114 5.81998 5.57812 5.81998C7.77511 5.81998 9.5625 7.60737 9.5625 9.80435C9.5625 12.0013 7.77511 13.7887 5.57812 13.7887C3.38114 13.7887 1.59375 12.0013 1.59375 9.80435Z" fill="black"/>
<path id="Vector_2" d="M7.96875 22.5559C7.96875 21.2379 6.89616 20.1653 5.57812 20.1653C4.26009 20.1653 3.1875 21.2379 3.1875 22.5559C3.1875 23.874 4.26009 24.9466 5.57812 24.9466C6.89616 24.9466 7.96875 23.874 7.96875 22.5559ZM4.78125 22.5559C4.78125 22.3446 4.86521 22.1419 5.01465 21.9925C5.16409 21.843 5.36678 21.7591 5.57812 21.7591C5.78947 21.7591 5.99216 21.843 6.1416 21.9925C6.29104 22.1419 6.375 22.3446 6.375 22.5559C6.375 22.7673 6.29104 22.97 6.1416 23.1194C5.99216 23.2689 5.78947 23.3528 5.57812 23.3528C5.36678 23.3528 5.16409 23.2689 5.01465 23.1194C4.86521 22.97 4.78125 22.7673 4.78125 22.5559ZM7.96875 9.80753C7.96875 8.48949 6.89616 7.4169 5.57812 7.4169C4.26009 7.4169 3.1875 8.48949 3.1875 9.80753C3.1875 11.1256 4.26009 12.1982 5.57812 12.1982C6.89616 12.1982 7.96875 11.1256 7.96875 9.80753ZM4.78125 9.80753C4.78125 9.59618 4.86521 9.39349 5.01465 9.24405C5.16409 9.09461 5.36678 9.01065 5.57812 9.01065C5.78947 9.01065 5.99216 9.09461 6.1416 9.24405C6.29104 9.39349 6.375 9.59618 6.375 9.80753C6.375 10.0189 6.29104 10.2216 6.1416 10.371C5.99216 10.5204 5.78947 10.6044 5.57812 10.6044C5.36678 10.6044 5.16409 10.5204 5.01465 10.371C4.86521 10.2216 4.78125 10.0189 4.78125 9.80753ZM17.5575 35.5402C17.5735 35.5896 17.5926 35.6334 17.6165 35.6789C17.6667 35.7701 17.7344 35.8505 17.8157 35.9155C17.8373 35.9323 17.85 35.9562 17.8731 35.9713C17.8986 35.9881 17.9281 35.9952 17.956 36.0088C18.0647 36.0653 18.1849 36.0964 18.3074 36.0996H37.4332C37.4651 36.0996 37.4914 36.0845 37.5225 36.0821C37.5774 36.0757 37.6324 36.0669 37.6858 36.0494C37.7304 36.0335 37.7695 36.0144 37.8101 35.992C37.8277 35.9825 37.8468 35.9785 37.8635 35.9681C37.8802 35.9578 37.8874 35.941 37.9034 35.9299C37.9893 35.8648 38.0613 35.7833 38.1153 35.69C38.1689 35.5959 38.2022 35.4917 38.2133 35.384C38.2165 35.3561 38.2301 35.3322 38.2301 35.3027C38.2301 35.2796 38.2181 35.2597 38.2165 35.2374C38.2116 35.1808 38.2004 35.125 38.1831 35.0709C38.1697 35.0257 38.1527 34.9817 38.1321 34.9394C38.1193 34.9163 38.1177 34.8892 38.1034 34.8661L30.9315 23.7218C30.9299 23.7186 30.9267 23.7178 30.9243 23.7146C30.8948 23.6692 30.8486 23.6349 30.8088 23.5967C30.7729 23.5608 30.7418 23.5186 30.6996 23.4907L30.6916 23.4827C30.6566 23.4604 30.6159 23.4556 30.5793 23.4389C30.5243 23.4142 30.4717 23.3855 30.4135 23.3743C30.3609 23.3632 30.3083 23.3703 30.2557 23.3703C30.2063 23.3703 30.1577 23.364 30.1083 23.3735C30.0462 23.3863 29.9904 23.4158 29.9322 23.4421C29.898 23.458 29.8613 23.4612 29.8286 23.4827C29.8254 23.4843 29.8238 23.4883 29.8207 23.4899C29.7776 23.5186 29.7457 23.5624 29.7075 23.5998C29.6692 23.6381 29.6246 23.6708 29.5959 23.7154C29.5943 23.7178 29.5904 23.7194 29.5888 23.7226L25.857 29.5206L24.1533 26.9005L24.1477 26.8949C24.1198 26.8519 24.0752 26.8208 24.0385 26.7834C24.0003 26.7451 23.9676 26.7005 23.9238 26.671L23.9182 26.6654C23.8847 26.6439 23.8465 26.6391 23.8114 26.6232C23.754 26.5969 23.6983 26.5658 23.6369 26.5539C23.5859 26.5435 23.5349 26.5507 23.4839 26.5507C23.4329 26.5507 23.3819 26.5435 23.3309 26.5539C23.2703 26.5658 23.2146 26.5969 23.158 26.6224C23.1221 26.6391 23.0831 26.6431 23.0496 26.6654L23.044 26.671C23.0002 26.6997 22.9691 26.7443 22.9309 26.7818C22.8934 26.82 22.8488 26.8511 22.8201 26.8949L22.8145 26.9005L17.6348 34.8692C17.6213 34.8892 17.6205 34.9123 17.6101 34.933C17.5855 34.9796 17.566 35.0288 17.552 35.0796C17.5359 35.131 17.5253 35.1839 17.5201 35.2374C17.5185 35.2605 17.5065 35.2804 17.5065 35.3035C17.5065 35.3314 17.5201 35.3545 17.5225 35.3824C17.5312 35.4358 17.5416 35.4876 17.5575 35.5402ZM26.5112 31.4514C26.5197 31.4397 26.5274 31.4275 26.5343 31.4148L30.2605 25.6247L35.9757 34.5059H24.5453L26.5112 31.4514ZM22.6504 34.5059H19.776L23.4871 28.7971L24.9127 30.9901L22.6504 34.5059ZM19.9028 24.9298C21.2208 24.9298 22.2934 23.8572 22.2934 22.5392C22.2934 21.2212 21.2208 20.1486 19.9028 20.1486C18.5847 20.1486 17.5121 21.2212 17.5121 22.5392C17.5121 23.8572 18.5839 24.9298 19.9028 24.9298ZM19.9028 21.7423C20.1141 21.7423 20.3168 21.8263 20.4662 21.9757C20.6157 22.1252 20.6996 22.3279 20.6996 22.5392C20.6996 22.7505 20.6157 22.9532 20.4662 23.1027C20.3168 23.2521 20.1141 23.3361 19.9028 23.3361C19.6914 23.3361 19.4887 23.2521 19.3393 23.1027C19.1898 22.9532 19.1059 22.7505 19.1059 22.5392C19.1059 22.3279 19.1898 22.1252 19.3393 21.9757C19.4887 21.8263 19.6914 21.7423 19.9028 21.7423Z" fill="black"/>
</g>
</g>
</svg>
