<svg width="48" height="63" viewBox="0 0 48 63" fill="none" xmlns="http://www.w3.org/2000/svg">
    <g id="Group">
        <path id="Vector" d="M39.2185 0.249023H8.21846C7.67034 0.249023 7.14468 0.466761 6.7571 0.854336C6.36953 1.24191 6.15179 1.76758 6.15179 2.31569V9.54903C6.15179 10.0971 6.36953 10.6228 6.7571 11.0104C7.14468 11.398 7.67034 11.6157 8.21846 11.6157H11.3185V16.7824C11.3185 17.1854 10.9878 16.5137 17.5185 27.405V30.9597C17.5185 31.7244 17.5185 31.6107 20.4635 36.4467C20.6438 36.759 20.9027 37.0188 21.2145 37.2001C21.5263 37.3813 21.8801 37.4779 22.2408 37.48H22.6851V41.944L0.985122 50.4794C0.695107 50.5913 0.445781 50.7885 0.269945 51.0448C0.0941086 51.3012 0 51.6048 0 51.9157C0 52.2266 0.0941086 52.5302 0.269945 52.7866C0.445781 53.0429 0.695107 53.2401 0.985122 53.352C23.9665 62.59 22.5715 62.249 23.7185 62.249C24.8655 62.249 23.4808 62.59 46.4518 53.352C46.7409 53.2378 46.989 53.0392 47.1638 52.7822C47.3386 52.5251 47.4321 52.2214 47.4321 51.9105C47.4321 51.5997 47.3386 51.296 47.1638 51.0389C46.989 50.7819 46.7409 50.5833 46.4518 50.469L24.7518 41.913V37.449H25.1961C25.5568 37.4469 25.9106 37.3503 26.2224 37.169C26.5342 36.9878 26.7931 36.7281 26.9735 36.4157C29.8255 31.6624 29.9185 31.6934 29.9185 30.9287V27.405C36.4181 16.5654 36.1185 17.1957 36.1185 16.7824V11.6157H39.2185C39.7666 11.6157 40.2922 11.398 40.6798 11.0104C41.0674 10.6228 41.2851 10.0971 41.2851 9.54903V2.31569C41.2851 1.76758 41.0674 1.24191 40.6798 0.854336C40.2922 0.466761 39.7666 0.249023 39.2185 0.249023ZM22.6851 44.1347V51.2544L12.6721 55.8734L2.89679 51.9157L22.6851 44.1347ZM44.5401 51.9157L24.4831 60.0377C23.9921 60.2333 23.4448 60.2333 22.9538 60.0377L15.2968 56.9377L24.1525 52.8044C24.3241 52.7252 24.4707 52.6005 24.5764 52.4438C24.682 52.2871 24.7427 52.1045 24.7518 51.9157V44.1347L44.5401 51.9157ZM27.8518 30.9597L25.1961 35.3824H22.2408L19.5851 30.9597V28.149H27.8518V30.9597ZM34.0518 15.749H22.6851C22.4111 15.749 22.1482 15.8579 21.9544 16.0517C21.7607 16.2455 21.6518 16.5083 21.6518 16.7824C21.6518 17.0564 21.7607 17.3193 21.9544 17.513C22.1482 17.7068 22.4111 17.8157 22.6851 17.8157H33.2561L28.2961 26.0824H19.1408L14.1808 17.8157H17.5185C17.7925 17.8157 18.0553 17.7068 18.2491 17.513C18.4429 17.3193 18.5518 17.0564 18.5518 16.7824C18.5518 16.5083 18.4429 16.2455 18.2491 16.0517C18.0553 15.8579 17.7925 15.749 17.5185 15.749H13.3851V11.6157H34.0518V15.749ZM39.2185 9.54903H8.21846V2.31569H10.2851V4.38236C10.2851 4.65641 10.394 4.91925 10.5878 5.11303C10.7816 5.30682 11.0444 5.41569 11.3185 5.41569C11.5925 5.41569 11.8553 5.30682 12.0491 5.11303C12.2429 4.91925 12.3518 4.65641 12.3518 4.38236V2.31569H14.4185V4.38236C14.4185 4.65641 14.5273 4.91925 14.7211 5.11303C14.9149 5.30682 15.1777 5.41569 15.4518 5.41569C15.7258 5.41569 15.9887 5.30682 16.1825 5.11303C16.3763 4.91925 16.4851 4.65641 16.4851 4.38236V2.31569H18.5518V4.38236C18.5518 4.65641 18.6607 4.91925 18.8544 5.11303C19.0482 5.30682 19.3111 5.41569 19.5851 5.41569C19.8592 5.41569 20.122 5.30682 20.3158 5.11303C20.5096 4.91925 20.6185 4.65641 20.6185 4.38236V2.31569H22.6851V4.38236C22.6851 4.65641 22.794 4.91925 22.9878 5.11303C23.1816 5.30682 23.4444 5.41569 23.7185 5.41569C23.9925 5.41569 24.2553 5.30682 24.4491 5.11303C24.6429 4.91925 24.7518 4.65641 24.7518 4.38236V2.31569H26.8185V4.38236C26.8185 4.65641 26.9273 4.91925 27.1211 5.11303C27.3149 5.30682 27.5777 5.41569 27.8518 5.41569C28.1258 5.41569 28.3887 5.30682 28.5825 5.11303C28.7763 4.91925 28.8851 4.65641 28.8851 4.38236V2.31569H30.9518V4.38236C30.9518 4.65641 31.0607 4.91925 31.2544 5.11303C31.4482 5.30682 31.7111 5.41569 31.9851 5.41569C32.2592 5.41569 32.522 5.30682 32.7158 5.11303C32.9096 4.91925 33.0185 4.65641 33.0185 4.38236V2.31569H35.0851V4.38236C35.0851 4.65641 35.194 4.91925 35.3878 5.11303C35.5816 5.30682 35.8444 5.41569 36.1185 5.41569C36.3925 5.41569 36.6553 5.30682 36.8491 5.11303C37.0429 4.91925 37.1518 4.65641 37.1518 4.38236V2.31569H39.2185V9.54903Z" fill="#3C3B6E"/>
        <path id="Vector_2" d="M38.4225 26.351C38.5514 26.3083 38.6707 26.2406 38.7734 26.1517C38.8762 26.0629 38.9604 25.9547 39.0213 25.8333C39.0823 25.712 39.1187 25.5798 39.1285 25.4443C39.1384 25.3089 39.1214 25.1728 39.0787 25.0439C39.0359 24.915 38.9682 24.7957 38.8794 24.693C38.7906 24.5902 38.6824 24.506 38.561 24.4451C38.4396 24.3841 38.3074 24.3477 38.172 24.3379C38.0365 24.328 37.9004 24.345 37.7715 24.3877C33.7002 25.731 32.0572 29.482 33.8862 33.3984C35.1779 36.178 34.1239 38.565 31.2202 39.5984C30.9693 39.6908 30.764 39.8768 30.6474 40.1174C30.5308 40.358 30.512 40.6344 30.5949 40.8886C30.6779 41.1428 30.8561 41.3549 31.0922 41.4804C31.3282 41.6059 31.6038 41.6351 31.8609 41.5617C32.7797 41.3279 33.6327 40.8864 34.3542 40.2713C35.0757 39.6562 35.6465 38.8839 36.0228 38.0136C36.399 37.1433 36.5707 36.1984 36.5245 35.2514C36.4783 34.3044 36.2156 33.3806 35.7565 32.551C34.4545 29.73 35.5189 27.312 38.4225 26.351Z" fill="#3C3B6E"/>
        <path id="Vector_3" d="M46.1835 16.2038C46.3171 16.1656 46.4417 16.1009 46.5497 16.0135C46.6578 15.9262 46.7471 15.8179 46.8123 15.6952C46.8776 15.5725 46.9174 15.4379 46.9294 15.2995C46.9414 15.1611 46.9254 15.0216 46.8823 14.8895C46.8392 14.7574 46.7699 14.6354 46.6785 14.5307C46.5872 14.426 46.4756 14.3408 46.3506 14.2802C46.2255 14.2196 46.0896 14.1848 45.9508 14.178C45.812 14.1712 45.6732 14.1924 45.5429 14.2404C44.6255 14.4747 43.774 14.9159 43.0536 15.5303C42.3332 16.1447 41.7631 16.916 41.387 17.7849C41.0109 18.6538 40.8388 19.5973 40.8839 20.543C40.929 21.4887 41.1901 22.4116 41.6472 23.2408C42.9492 26.0308 41.8849 28.4591 38.9812 29.4408C38.7208 29.5271 38.5054 29.7133 38.3824 29.9584C38.2593 30.2036 38.2387 30.4876 38.325 30.7479C38.4113 31.0083 38.5976 31.2237 38.8427 31.3467C39.0878 31.4698 39.3718 31.4904 39.6322 31.4041C43.7035 30.0608 45.3465 26.3098 43.5175 22.4038C42.2259 19.5828 43.2799 17.1648 46.1835 16.2038Z" fill="#3C3B6E"/>
    </g>
</svg>
